<svg width="4919" height="4516" viewBox="0 0 4919 4516" fill="none" xmlns="http://www.w3.org/2000/svg">
<path d="M3688.4 1599.85C3697.73 1585.63 3703.33 1568.92 3703.33 1551.33C3703.33 1518.62 3685.38 1488.58 3656.58 1473.12L3480.09 1378.03L2500.82 1896.5C2487.66 1903.35 2473.44 1906.81 2459.14 1906.81C2444.83 1906.81 2430.61 1903.35 2417.55 1896.5L1438.28 1378.03L1261.78 1473.12C1232.89 1488.58 1214.94 1518.62 1214.94 1551.33C1214.94 1568.92 1220.54 1585.63 1229.87 1599.85L2459.14 2250.65L3688.4 1599.85Z" fill="#439F88"/>
<path d="M3656.58 2006.35L3480.09 1911.25L2500.73 2429.73C2487.66 2436.66 2473.44 2440.04 2459.14 2440.04C2444.83 2440.04 2430.61 2436.57 2417.55 2429.73L1438.28 1911.25L1261.78 2006.35C1232.89 2021.81 1214.94 2051.85 1214.94 2084.55C1214.94 2117.26 1232.89 2147.3 1261.69 2162.76L2417.01 2784.86C2430.16 2791.97 2444.65 2795.52 2459.14 2795.52C2473.62 2795.52 2488.11 2791.97 2501.26 2784.86L3656.58 2162.76C3685.38 2147.3 3703.33 2117.26 3703.33 2084.55C3703.33 2051.85 3685.38 2021.81 3656.58 2006.35Z" fill="white"/>
<path d="M2459.14 1717.43L3688.4 1066.63C3697.73 1052.32 3703.33 1035.7 3703.33 1018.1C3703.33 985.397 3685.38 955.359 3656.58 939.895L2501.26 317.798C2475.04 303.668 2443.32 303.668 2417.1 317.798L1261.78 939.895C1232.89 955.359 1214.94 985.397 1214.94 1018.1C1214.94 1035.7 1220.54 1052.32 1229.87 1066.63L2459.14 1717.43Z" fill="white"/>
<path d="M654.608 2983.06V3062.93H658.704C680.549 3036.99 704.101 3016.51 729.36 3001.49C754.619 2986.47 783.973 2978.96 817.424 2978.96C856.336 2978.96 891.835 2986.13 923.92 3000.46C956.688 3014.12 985.019 3033.57 1008.91 3058.83C1032.81 3084.09 1051.24 3114.13 1064.21 3148.94C1077.86 3183.08 1084.69 3220.62 1084.69 3261.58C1084.69 3303.23 1077.86 3341.46 1064.21 3376.27C1050.55 3410.41 1031.78 3439.76 1007.89 3464.34C983.995 3488.91 955.664 3508.03 922.896 3521.68C890.128 3535.33 854.629 3542.16 816.4 3542.16C784.997 3542.16 756.325 3537.04 730.384 3526.8C705.125 3515.88 681.232 3498.47 658.704 3474.58V3624.08C658.704 3651.39 660.069 3673.23 662.8 3689.62C665.531 3706 670.992 3718.63 679.184 3727.5C687.376 3736.38 698.981 3742.52 714 3745.94C729.701 3749.35 750.181 3751.4 775.44 3752.08V3787.92H460.048V3752.08C480.528 3751.4 496.912 3749.35 509.2 3745.94C522.171 3742.52 532.069 3736.38 538.896 3727.5C546.405 3718.63 551.525 3706.68 554.256 3691.66C556.987 3675.96 558.352 3655.82 558.352 3631.25V3248.27C558.352 3208.68 557.669 3176.25 556.304 3150.99C555.621 3125.73 553.915 3108.33 551.184 3098.77C547.771 3082.38 539.92 3071.46 527.632 3066C515.344 3059.86 492.133 3056.78 458 3056.78V3021.97L654.608 2983.06ZM685.328 3092.62C676.453 3106.28 669.627 3122.66 664.848 3141.78C660.752 3160.21 658.704 3184.44 658.704 3214.48V3294.35C658.704 3312.78 659.045 3328.83 659.728 3342.48C661.093 3355.45 662.8 3366.71 664.848 3376.27C666.896 3385.83 669.627 3394.36 673.04 3401.87C676.453 3409.38 680.891 3416.55 686.352 3423.38C702.053 3445.22 720.827 3462.29 742.672 3474.58C764.517 3486.18 787.387 3491.98 811.28 3491.98C858.384 3491.98 896.272 3472.19 924.944 3432.59C954.299 3393 968.976 3337.36 968.976 3265.68C968.976 3230.18 964.88 3198.1 956.688 3169.42C949.179 3140.07 938.256 3115.15 923.92 3094.67C909.584 3073.51 892.176 3057.13 871.696 3045.52C851.899 3033.91 829.712 3028.11 805.136 3028.11C780.56 3028.11 757.691 3033.91 736.528 3045.52C716.048 3056.44 698.981 3072.14 685.328 3092.62ZM1347.86 3238.03V3369.1C1347.86 3397.09 1348.54 3419.28 1349.9 3435.66C1351.27 3452.05 1354.68 3464.68 1360.14 3473.55C1366.29 3481.74 1374.82 3487.21 1385.74 3489.94C1396.67 3492.67 1412.03 3494.71 1431.82 3496.08V3531.92H1159.44V3496.08C1179.24 3494.71 1194.94 3492.67 1206.54 3489.94C1218.15 3487.21 1227.02 3481.74 1233.17 3473.55C1239.31 3465.36 1243.07 3453.75 1244.43 3438.74C1246.48 3423.03 1247.5 3402.21 1247.5 3376.27V2947.22C1247.5 2906.94 1246.82 2874.85 1245.46 2850.96C1244.77 2827.07 1243.07 2808.98 1240.34 2796.69C1238.97 2788.5 1236.58 2782.01 1233.17 2777.23C1230.44 2771.77 1226 2767.67 1219.86 2764.94C1213.71 2761.53 1205.52 2759.14 1195.28 2757.78C1185.04 2756.41 1172.41 2755.73 1157.39 2755.73V2720.91L1345.81 2682V3072.14H1349.9C1360.14 3058.49 1372.77 3046.2 1387.79 3035.28C1403.49 3023.67 1420.22 3013.78 1437.97 3005.58C1455.72 2997.39 1474.15 2990.91 1493.26 2986.13C1513.06 2981.35 1532.18 2978.96 1550.61 2978.96C1582.01 2978.96 1610.68 2984.42 1636.62 2995.34C1663.25 3006.27 1683.73 3020.94 1698.06 3039.38C1709.67 3055.08 1718.2 3075.9 1723.66 3101.84C1729.13 3127.1 1731.86 3161.57 1731.86 3205.26V3369.1C1731.86 3397.09 1732.54 3419.28 1733.9 3435.66C1735.27 3451.37 1738.68 3463.65 1744.14 3472.53C1750.29 3481.4 1758.82 3487.21 1769.74 3489.94C1780.67 3492.67 1796.03 3494.71 1815.82 3496.08V3531.92H1544.46V3496.08C1563.58 3495.4 1578.94 3493.69 1590.54 3490.96C1602.15 3487.55 1610.68 3481.74 1616.14 3473.55C1622.29 3465.36 1626.04 3453.75 1627.41 3438.74C1629.46 3423.03 1630.48 3402.21 1630.48 3376.27V3247.25C1630.48 3170.79 1621.61 3116.52 1603.86 3084.43C1586.11 3051.66 1556.41 3035.28 1514.77 3035.28C1482.68 3035.28 1453.33 3043.47 1426.7 3059.86C1400.76 3076.24 1380.28 3098.77 1365.26 3127.44C1361.85 3134.95 1358.78 3142.12 1356.05 3148.94C1354 3155.09 1352.29 3162.26 1350.93 3170.45C1349.56 3178.64 1348.54 3188.2 1347.86 3199.12C1347.86 3209.36 1347.86 3222.33 1347.86 3238.03ZM2172.18 2978.96C2211.09 2978.96 2247.95 2986.13 2282.77 3000.46C2317.58 3014.12 2347.96 3033.23 2373.9 3057.81C2400.53 3082.38 2421.35 3111.74 2436.37 3145.87C2452.07 3179.32 2459.92 3216.19 2459.92 3256.46C2459.92 3298.11 2452.07 3336.34 2436.37 3371.15C2421.35 3405.97 2400.53 3436.01 2373.9 3461.26C2347.96 3486.52 2317.58 3506.32 2282.77 3520.66C2247.95 3534.99 2211.09 3542.16 2172.18 3542.16C2133.95 3542.16 2097.42 3535.33 2062.61 3521.68C2028.47 3507.34 1998.44 3487.55 1972.5 3462.29C1946.55 3437.03 1926.07 3406.99 1911.06 3372.18C1896.04 3336.68 1888.53 3298.11 1888.53 3256.46C1888.53 3216.19 1896.04 3178.98 1911.06 3144.85C1926.07 3110.71 1946.55 3081.36 1972.5 3056.78C1998.44 3032.21 2028.47 3013.09 2062.61 2999.44C2097.42 2985.79 2133.95 2978.96 2172.18 2978.96ZM2172.18 3028.11C2146.92 3028.11 2123.71 3033.57 2102.54 3044.5C2082.06 3055.42 2064.31 3071.12 2049.3 3091.6C2034.96 3111.4 2023.7 3135.63 2015.5 3164.3C2007.99 3192.29 2004.24 3223.35 2004.24 3257.49C2004.24 3292.99 2007.99 3325.07 2015.5 3353.74C2023.7 3382.42 2034.96 3406.99 2049.3 3427.47C2064.31 3447.27 2082.06 3462.63 2102.54 3473.55C2123.02 3484.47 2146.23 3489.94 2172.18 3489.94C2198.12 3489.94 2221.67 3484.47 2242.83 3473.55C2263.99 3462.63 2282.09 3446.93 2297.1 3426.45C2312.12 3405.97 2323.73 3381.39 2331.92 3352.72C2340.11 3324.05 2344.21 3292.3 2344.21 3257.49C2344.21 3223.35 2340.11 3192.29 2331.92 3164.3C2323.73 3136.31 2312.12 3112.42 2297.1 3092.62C2282.09 3072.14 2263.99 3056.44 2242.83 3045.52C2221.67 3033.91 2198.12 3028.11 2172.18 3028.11ZM2736.4 3334.29V3369.1C2736.4 3397.09 2737.08 3419.28 2738.45 3435.66C2739.81 3452.05 2743.23 3464.68 2748.69 3473.55C2754.83 3481.74 2763.37 3487.21 2774.29 3489.94C2785.21 3492.67 2800.57 3494.71 2820.37 3496.08V3531.92H2547.98V3496.08C2567.78 3495.4 2583.48 3493.69 2595.09 3490.96C2606.69 3487.55 2615.57 3481.74 2621.71 3473.55C2627.86 3465.36 2631.61 3453.75 2632.98 3438.74C2635.02 3423.03 2636.05 3402.21 2636.05 3376.27V3256.46C2636.05 3210.04 2635.37 3173.86 2634 3147.92C2633.32 3121.98 2629.9 3102.86 2623.76 3090.58C2618.3 3078.29 2609.42 3071.12 2597.14 3069.07C2584.85 3066.34 2567.78 3064.98 2545.94 3064.98V3029.14L2725.14 2990.22L2739.47 3117.2H2743.57C2752.44 3096.72 2763.37 3077.95 2776.34 3060.88C2789.99 3043.81 2804.67 3029.48 2820.37 3017.87C2836.07 3005.58 2852.45 2996.03 2869.52 2989.2C2886.59 2982.37 2903.99 2978.96 2921.74 2978.96C2943.59 2978.96 2960.66 2984.42 2972.94 2995.34C2985.91 3005.58 2992.4 3019.58 2992.4 3037.33C2992.4 3053.71 2987.28 3066.68 2977.04 3076.24C2966.8 3085.11 2952.12 3089.55 2933.01 3089.55C2922.09 3089.55 2912.87 3088.19 2905.36 3085.46C2897.85 3082.73 2891.02 3079.99 2884.88 3077.26C2879.42 3073.85 2873.96 3070.78 2868.5 3068.05C2863.72 3065.32 2858.26 3063.95 2852.11 3063.95C2833.68 3063.95 2815.25 3075.9 2796.82 3099.79C2778.38 3123 2764.05 3152.7 2753.81 3188.88C2748.35 3208.68 2743.91 3231.21 2740.5 3256.46C2737.77 3281.04 2736.4 3306.98 2736.4 3334.29ZM3471.63 3253.39V3153.04C3471.63 3125.05 3470.95 3103.21 3469.58 3087.5C3468.22 3071.12 3464.46 3058.83 3458.32 3050.64C3452.86 3041.77 3444.33 3035.96 3432.72 3033.23C3421.8 3029.82 3406.44 3027.09 3386.64 3025.04V2989.2H3571.98V3303.57C3571.98 3342.48 3572.33 3374.22 3573.01 3398.8C3574.37 3423.38 3576.08 3441.81 3578.13 3454.1C3579.49 3462.97 3581.54 3470.14 3584.27 3475.6C3587.69 3480.38 3592.46 3484.47 3598.61 3487.89C3604.75 3490.62 3612.6 3492.67 3622.16 3494.03C3632.4 3494.71 3645.37 3495.06 3661.07 3495.06V3530.9L3492.11 3543.18L3480.85 3420.3H3476.75C3450.81 3462.63 3420.77 3493.69 3386.64 3513.49C3353.19 3532.6 3318.03 3542.16 3281.17 3542.16C3252.5 3542.16 3224.51 3536.7 3197.2 3525.78C3170.58 3514.85 3150.44 3500.18 3136.78 3481.74C3125.18 3466.73 3116.65 3445.9 3111.18 3419.28C3106.41 3392.66 3104.02 3358.18 3104.02 3315.86V3153.04C3104.02 3125.05 3103.33 3103.21 3101.97 3087.5C3100.6 3071.12 3096.85 3058.83 3090.7 3050.64C3085.24 3041.77 3076.71 3035.96 3065.1 3033.23C3054.18 3029.82 3038.82 3027.09 3019.02 3025.04V2989.2H3204.37V3268.75C3204.37 3343.16 3212.9 3397.09 3229.97 3430.54C3247.72 3463.99 3275.71 3480.72 3313.94 3480.72C3374.01 3480.72 3420.77 3441.47 3454.22 3362.96C3457.64 3354.77 3460.37 3347.26 3462.42 3340.43C3464.46 3333.61 3466.17 3326.1 3467.54 3317.9C3468.9 3309.71 3469.93 3300.5 3470.61 3290.26C3471.29 3280.02 3471.63 3267.73 3471.63 3253.39ZM3909.9 3238.03V3368.08C3909.9 3396.75 3910.59 3419.28 3911.95 3435.66C3913.32 3452.05 3916.73 3464.68 3922.19 3473.55C3928.34 3481.74 3936.87 3487.21 3947.79 3489.94C3958.71 3492.67 3974.07 3494.71 3993.87 3496.08V3531.92H3721.49V3496.08C3741.29 3494.71 3756.99 3492.67 3768.59 3489.94C3780.2 3487.21 3789.07 3481.74 3795.22 3473.55C3801.36 3465.36 3805.11 3453.75 3806.48 3438.74C3808.53 3423.03 3809.55 3402.21 3809.55 3376.27V3245.2C3809.55 3206.29 3808.87 3173.86 3807.5 3147.92C3806.82 3121.98 3805.11 3104.23 3802.38 3094.67C3800.34 3085.8 3797.95 3078.97 3795.22 3074.19C3792.49 3068.73 3788.05 3064.63 3781.9 3061.9C3775.76 3058.49 3767.57 3056.44 3757.33 3055.76C3747.77 3054.39 3735.14 3053.71 3719.44 3053.71V3017.87L3886.35 2978.96L3899.66 3081.36H3904.78C3935.5 3046.54 3967.59 3020.94 4001.04 3004.56C4035.17 2987.49 4072.72 2978.96 4113.68 2978.96C4156.69 2978.96 4192.87 2987.83 4222.22 3005.58C4251.58 3022.65 4272.06 3047.57 4283.66 3080.34H4287.76C4313.02 3048.25 4343.74 3023.33 4379.92 3005.58C4416.1 2987.83 4454.67 2978.96 4495.63 2978.96C4527.72 2978.96 4556.73 2984.42 4582.67 2995.34C4609.3 3005.58 4629.44 3019.92 4643.09 3038.35C4655.38 3054.05 4663.91 3074.87 4668.69 3100.82C4674.15 3126.07 4676.88 3160.89 4676.88 3205.26V3368.08C4676.88 3396.07 4677.56 3418.26 4678.93 3434.64C4680.98 3451.02 4684.73 3463.65 4690.19 3472.53C4695.65 3481.4 4703.85 3487.21 4714.77 3489.94C4726.37 3492.67 4742.07 3494.71 4761.87 3496.08V3531.92H4489.49V3496.08C4508.6 3495.4 4523.96 3493.69 4535.57 3490.96C4547.17 3487.55 4556.05 3481.74 4562.19 3473.55C4568.34 3464.68 4572.09 3452.73 4573.46 3437.71C4575.5 3422.69 4576.53 3402.21 4576.53 3376.27V3247.25C4576.53 3208.34 4574.48 3175.57 4570.38 3148.94C4566.29 3121.64 4559.46 3099.79 4549.9 3083.41C4540.35 3066.34 4527.72 3054.05 4512.02 3046.54C4497 3039.03 4478.57 3035.28 4456.72 3035.28C4426.68 3035.28 4398.35 3043.81 4371.73 3060.88C4345.79 3077.26 4325.31 3099.45 4310.29 3127.44C4306.87 3134.27 4303.8 3141.09 4301.07 3147.92C4299.02 3154.06 4297.32 3161.23 4295.95 3169.42C4294.59 3176.93 4293.56 3186.15 4292.88 3197.07C4292.88 3207.99 4292.88 3221.65 4292.88 3238.03V3368.08C4292.88 3396.07 4293.56 3418.26 4294.93 3434.64C4296.29 3451.02 4299.71 3463.65 4305.17 3472.53C4311.31 3481.4 4320.19 3487.21 4331.79 3489.94C4343.4 3492.67 4359.1 3494.71 4378.9 3496.08V3531.92H4106.51V3496.08C4125.63 3494.71 4140.99 3492.67 4152.59 3489.94C4164.2 3487.21 4172.73 3481.74 4178.19 3473.55C4184.34 3465.36 4188.09 3453.75 4189.46 3438.74C4191.5 3423.03 4192.53 3402.21 4192.53 3376.27V3247.25C4192.53 3207.65 4190.48 3174.54 4186.38 3147.92C4182.29 3120.61 4175.46 3098.77 4165.9 3082.38C4157.03 3065.32 4145.08 3053.37 4130.06 3046.54C4115.05 3039.03 4096.61 3035.28 4074.77 3035.28C4044.05 3035.28 4015.03 3043.81 3987.73 3060.88C3961.1 3077.26 3940.97 3099.45 3927.31 3127.44C3923.9 3134.27 3920.83 3141.09 3918.1 3147.92C3916.05 3154.06 3914.34 3161.23 3912.98 3169.42C3911.61 3176.93 3910.59 3186.15 3909.9 3197.07C3909.9 3207.99 3909.9 3221.65 3909.9 3238.03Z" fill="#439F88"/>
</svg>
